<svg width="70" height="9" viewBox="0 0 70 9" fill="none" xmlns="http://www.w3.org/2000/svg">
<path d="M2.38637 8.72727L5.55068e-06 -9.53674e-07H1.07387L2.89773 7.10795H2.98296L4.84091 -9.53674e-07H6.0341L7.89205 7.10795H7.97728L9.80114 -9.53674e-07H10.875L8.48864 8.72727H7.39773L5.4716 1.77273H5.40341L3.47728 8.72727H2.38637ZM13.0611 4.78977V8.72727H12.0554V-9.53674e-07H13.0611V3.20454H13.1463C13.2997 2.86648 13.5298 2.59801 13.8367 2.39915C14.1463 2.19744 14.5582 2.09659 15.0724 2.09659C15.5185 2.09659 15.9091 2.18608 16.2443 2.36506C16.5796 2.54119 16.8395 2.8125 17.0242 3.17898C17.2117 3.54261 17.3054 4.00568 17.3054 4.56818V8.72727H16.2997V4.63636C16.2997 4.11648 16.1648 3.71449 15.8949 3.4304C15.6278 3.14347 15.2571 3 14.7827 3C14.4531 3 14.1577 3.0696 13.8963 3.20881C13.6378 3.34801 13.4332 3.55114 13.2827 3.81818C13.1349 4.08523 13.0611 4.40909 13.0611 4.78977ZM21.0714 8.88068C20.6566 8.88068 20.2802 8.80256 19.9421 8.64631C19.6041 8.48722 19.3356 8.25852 19.1367 7.96023C18.9379 7.65909 18.8384 7.29545 18.8384 6.86932C18.8384 6.49432 18.9123 6.19034 19.06 5.95739C19.2077 5.72159 19.4052 5.53693 19.6523 5.40341C19.8995 5.26989 20.1722 5.17045 20.4705 5.10511C20.7717 5.03693 21.0742 4.98295 21.3782 4.94318C21.7759 4.89204 22.0984 4.85369 22.3455 4.82812C22.5955 4.79972 22.7773 4.75284 22.891 4.6875C23.0075 4.62216 23.0657 4.50852 23.0657 4.34659V4.3125C23.0657 3.89204 22.9506 3.56534 22.7205 3.33239C22.4933 3.09943 22.1481 2.98295 21.685 2.98295C21.2049 2.98295 20.8285 3.08807 20.5558 3.29829C20.283 3.50852 20.0913 3.73295 19.9805 3.97159L19.0259 3.63068C19.1964 3.23295 19.4237 2.92329 19.7077 2.7017C19.9947 2.47727 20.3072 2.32102 20.6452 2.23295C20.9862 2.14204 21.3214 2.09659 21.6509 2.09659C21.8612 2.09659 22.1026 2.12216 22.3754 2.17329C22.6509 2.22159 22.9166 2.32244 23.1722 2.47585C23.4308 2.62926 23.6452 2.86079 23.8157 3.17045C23.9862 3.48011 24.0714 3.89489 24.0714 4.41477V8.72727H23.0657V7.84091H23.0146C22.9464 7.98295 22.8327 8.13494 22.6737 8.29687C22.5146 8.45881 22.3029 8.59659 22.0387 8.71023C21.7745 8.82386 21.4521 8.88068 21.0714 8.88068ZM21.2248 7.97727C21.6225 7.97727 21.9577 7.89915 22.2305 7.7429C22.506 7.58665 22.7134 7.38494 22.8526 7.13778C22.9947 6.89062 23.0657 6.63068 23.0657 6.35795V5.4375C23.0231 5.48864 22.9293 5.53551 22.7845 5.57812C22.6424 5.6179 22.4776 5.65341 22.2901 5.68466C22.1055 5.71307 21.9251 5.73864 21.7489 5.76136C21.5756 5.78125 21.435 5.79829 21.3271 5.8125C21.0657 5.84659 20.8214 5.90199 20.5941 5.97869C20.3697 6.05256 20.1879 6.16477 20.0487 6.31534C19.9123 6.46307 19.8441 6.66477 19.8441 6.92045C19.8441 7.26989 19.9734 7.53409 20.2319 7.71307C20.4933 7.8892 20.8242 7.97727 21.2248 7.97727ZM28.7536 2.18182V3.03409H25.3615V2.18182H28.7536ZM26.3501 0.613636H27.3558V6.85227C27.3558 7.13636 27.397 7.34943 27.4794 7.49148C27.5646 7.63068 27.6726 7.72443 27.8033 7.77273C27.9368 7.81818 28.0774 7.84091 28.2251 7.84091C28.3359 7.84091 28.4269 7.83523 28.4979 7.82386C28.5689 7.80966 28.6257 7.79829 28.6683 7.78977L28.8729 8.69318C28.8047 8.71875 28.7095 8.74432 28.5874 8.76989C28.4652 8.79829 28.3104 8.8125 28.1229 8.8125C27.8388 8.8125 27.5604 8.75142 27.2876 8.62926C27.0178 8.5071 26.7933 8.32102 26.6144 8.07102C26.4382 7.82102 26.3501 7.50568 26.3501 7.125V0.613636ZM35.3629 8.72727L32.9766 -9.53674e-07H34.0504L35.8743 7.10795H35.9595L37.8175 -9.53674e-07H39.0107L40.8686 7.10795H40.9538L42.7777 -9.53674e-07H43.8516L41.4652 8.72727H40.3743L38.4482 1.77273H38.38L36.4538 8.72727H35.3629ZM47.1669 8.86364C46.5362 8.86364 45.9922 8.72443 45.5348 8.44602C45.0803 8.16477 44.7294 7.77273 44.4822 7.26989C44.2379 6.7642 44.1158 6.17614 44.1158 5.50568C44.1158 4.83523 44.2379 4.24432 44.4822 3.73295C44.7294 3.21875 45.0732 2.81818 45.5135 2.53125C45.9567 2.24148 46.4737 2.09659 47.0646 2.09659C47.4055 2.09659 47.7422 2.15341 48.0746 2.26704C48.407 2.38068 48.7095 2.56534 48.9823 2.82102C49.255 3.07386 49.4723 3.40909 49.6342 3.8267C49.7962 4.24432 49.8771 4.75852 49.8771 5.36932V5.79545H44.8317V4.92614H48.8544C48.8544 4.55682 48.7805 4.22727 48.6328 3.9375C48.4879 3.64773 48.2805 3.41903 48.0107 3.25142C47.7436 3.08381 47.4283 3 47.0646 3C46.6641 3 46.3175 3.09943 46.0249 3.29829C45.7351 3.49432 45.5121 3.75 45.3558 4.06534C45.1996 4.38068 45.1215 4.71875 45.1215 5.07954V5.65909C45.1215 6.15341 45.2067 6.57244 45.3771 6.91619C45.5504 7.2571 45.7905 7.51704 46.0973 7.69602C46.4041 7.87216 46.7607 7.96023 47.1669 7.96023C47.4311 7.96023 47.6698 7.92329 47.8828 7.84943C48.0987 7.77273 48.2848 7.65909 48.4411 7.50852C48.5973 7.35511 48.718 7.16477 48.8033 6.9375L49.7749 7.21023C49.6726 7.53977 49.5007 7.82954 49.2592 8.07954C49.0178 8.3267 48.7195 8.51989 48.3644 8.65909C48.0092 8.79545 47.6101 8.86364 47.1669 8.86364ZM57.6115 8.72727H54.9183V-9.53674e-07H57.7308C58.5774 -9.53674e-07 59.3019 0.174715 59.9041 0.524147C60.5064 0.870738 60.968 1.36932 61.2891 2.01989C61.6101 2.66761 61.7706 3.44318 61.7706 4.34659C61.7706 5.25568 61.6087 6.03835 61.2848 6.6946C60.9609 7.34801 60.4894 7.85085 59.87 8.20312C59.2507 8.55256 58.4979 8.72727 57.6115 8.72727ZM55.9751 7.78977H57.5433C58.2649 7.78977 58.8629 7.65057 59.3374 7.37216C59.8118 7.09375 60.1655 6.69744 60.3984 6.18324C60.6314 5.66903 60.7479 5.05682 60.7479 4.34659C60.7479 3.64204 60.6328 3.03551 60.4027 2.52699C60.1726 2.01562 59.8288 1.62358 59.3715 1.35085C58.9141 1.07528 58.3445 0.937499 57.6626 0.937499H55.9751V7.78977ZM66.0661 8.86364C65.4751 8.86364 64.9567 8.72301 64.5107 8.44176C64.0675 8.16051 63.7209 7.76704 63.4709 7.26136C63.2237 6.75568 63.1001 6.16477 63.1001 5.48864C63.1001 4.80682 63.2237 4.21165 63.4709 3.70312C63.7209 3.1946 64.0675 2.79972 64.5107 2.51847C64.9567 2.23722 65.4751 2.09659 66.0661 2.09659C66.657 2.09659 67.174 2.23722 67.6172 2.51847C68.0632 2.79972 68.4098 3.1946 68.657 3.70312C68.907 4.21165 69.032 4.80682 69.032 5.48864C69.032 6.16477 68.907 6.75568 68.657 7.26136C68.4098 7.76704 68.0632 8.16051 67.6172 8.44176C67.174 8.72301 66.657 8.86364 66.0661 8.86364ZM66.0661 7.96023C66.5149 7.96023 66.8842 7.84517 67.174 7.61506C67.4638 7.38494 67.6783 7.08239 67.8175 6.70739C67.9567 6.33239 68.0263 5.92614 68.0263 5.48864C68.0263 5.05114 67.9567 4.64347 67.8175 4.26562C67.6783 3.88778 67.4638 3.58239 67.174 3.34943C66.8842 3.11648 66.5149 3 66.0661 3C65.6172 3 65.2479 3.11648 64.9581 3.34943C64.6683 3.58239 64.4538 3.88778 64.3146 4.26562C64.1754 4.64347 64.1058 5.05114 64.1058 5.48864C64.1058 5.92614 64.1754 6.33239 64.3146 6.70739C64.4538 7.08239 64.6683 7.38494 64.9581 7.61506C65.2479 7.84517 65.6172 7.96023 66.0661 7.96023Z" fill="white"/>
</svg>
