<svg width="72" height="9" viewBox="0 0 72 9" fill="none" xmlns="http://www.w3.org/2000/svg">
<path d="M2.49717 8.72727L6.94394e-06 -9.53674e-07H2.01563L3.46023 6.06392H3.53268L5.12643 -9.53674e-07H6.85228L8.44177 6.0767H8.51847L9.96308 -9.53674e-07H11.9787L9.48154 8.72727H7.68325L6.02131 3.02131H5.95313L4.29546 8.72727H2.49717ZM14.7475 4.94318V8.72727H12.9322V-9.53674e-07H14.6964V3.33665H14.7731C14.9208 2.95028 15.1595 2.64773 15.489 2.42898C15.8185 2.20739 16.2319 2.09659 16.7291 2.09659C17.1836 2.09659 17.5799 2.19602 17.918 2.39489C18.2589 2.59091 18.5231 2.87358 18.7106 3.2429C18.9009 3.60937 18.9947 4.04829 18.9918 4.55966V8.72727H17.1765V4.88352C17.1793 4.48011 17.0771 4.16619 16.8697 3.94176C16.6651 3.71733 16.3782 3.60511 16.0089 3.60511C15.7617 3.60511 15.543 3.65767 15.3526 3.76278C15.1651 3.8679 15.0174 4.02131 14.9095 4.22301C14.8043 4.42187 14.7504 4.66193 14.7475 4.94318ZM22.2869 8.85085C21.8693 8.85085 21.4972 8.77841 21.1705 8.63352C20.8438 8.48579 20.5852 8.26847 20.3949 7.98153C20.2074 7.69176 20.1136 7.33097 20.1136 6.89915C20.1136 6.53551 20.1804 6.23011 20.3139 5.98295C20.4475 5.73579 20.6293 5.53693 20.8594 5.38636C21.0895 5.23579 21.3509 5.12216 21.6435 5.04545C21.9389 4.96875 22.2486 4.91477 22.5725 4.88352C22.9531 4.84375 23.26 4.80682 23.4929 4.77273C23.7259 4.73579 23.8949 4.68182 24 4.61079C24.1051 4.53977 24.1577 4.43466 24.1577 4.29545V4.26989C24.1577 4 24.0725 3.79119 23.902 3.64346C23.7344 3.49574 23.4957 3.42187 23.1861 3.42187C22.8594 3.42187 22.5994 3.49432 22.4063 3.6392C22.2131 3.78125 22.0852 3.96023 22.0227 4.17614L20.3438 4.03977C20.429 3.64204 20.5966 3.29829 20.8466 3.00852C21.0966 2.71591 21.419 2.49148 21.8139 2.33523C22.2117 2.17614 22.6719 2.09659 23.1946 2.09659C23.5582 2.09659 23.9063 2.1392 24.2386 2.22443C24.5739 2.30966 24.8707 2.44176 25.1293 2.62074C25.3906 2.79972 25.5966 3.02983 25.7472 3.31108C25.8977 3.58949 25.973 3.92329 25.973 4.3125V8.72727H24.2514V7.8196H24.2003C24.0952 8.02415 23.9546 8.20454 23.7784 8.36079C23.6023 8.5142 23.3906 8.63494 23.1435 8.72301C22.8963 8.80824 22.6108 8.85085 22.2869 8.85085ZM22.8068 7.59801C23.0739 7.59801 23.3097 7.54545 23.5142 7.44034C23.7188 7.33239 23.8793 7.1875 23.9957 7.00568C24.1122 6.82386 24.1705 6.6179 24.1705 6.38778V5.69318C24.1136 5.73011 24.0355 5.7642 23.9361 5.79545C23.8395 5.82386 23.7301 5.85085 23.608 5.87642C23.4858 5.89915 23.3636 5.92045 23.2415 5.94034C23.1193 5.95739 23.0085 5.97301 22.9091 5.98722C22.696 6.01847 22.51 6.06818 22.3509 6.13636C22.1918 6.20454 22.0682 6.29687 21.9801 6.41335C21.8921 6.52699 21.848 6.66903 21.848 6.83949C21.848 7.08665 21.9375 7.27557 22.1165 7.40625C22.2983 7.53409 22.5284 7.59801 22.8068 7.59801ZM30.8629 2.18182V3.54545H26.9212V2.18182H30.8629ZM27.8161 0.613636H29.6314V6.71591C29.6314 6.88352 29.657 7.0142 29.7081 7.10795C29.7592 7.19886 29.8303 7.26278 29.9212 7.29972C30.0149 7.33665 30.1229 7.35511 30.245 7.35511C30.3303 7.35511 30.4155 7.34801 30.5007 7.33381C30.5859 7.31676 30.6513 7.30398 30.6967 7.29545L30.9823 8.64631C30.8913 8.67472 30.7635 8.70739 30.5987 8.74432C30.434 8.78409 30.2337 8.80824 29.9979 8.81676C29.5604 8.83381 29.1769 8.77557 28.8473 8.64204C28.5206 8.50852 28.2663 8.30114 28.0845 8.01989C27.9027 7.73864 27.8132 7.38352 27.8161 6.95454V0.613636ZM36.8214 8.72727L34.3242 -9.53674e-07H36.3399L37.7845 6.06392H37.8569L39.4506 -9.53674e-07H41.1765L42.766 6.0767H42.8427L44.2873 -9.53674e-07H46.3029L43.8058 8.72727H42.0075L40.3455 3.02131H40.2774L38.6197 8.72727H36.8214ZM49.5362 8.85511C48.8629 8.85511 48.2834 8.71875 47.7976 8.44602C47.3146 8.17045 46.9425 7.78125 46.6811 7.27841C46.4198 6.77273 46.2891 6.17472 46.2891 5.48437C46.2891 4.81108 46.4198 4.22017 46.6811 3.71165C46.9425 3.20312 47.3104 2.80682 47.7848 2.52273C48.2621 2.23864 48.8217 2.09659 49.4638 2.09659C49.8956 2.09659 50.2976 2.16619 50.6698 2.3054C51.0448 2.44176 51.3715 2.64773 51.6499 2.92329C51.9311 3.19886 52.1499 3.54545 52.3061 3.96307C52.4624 4.37784 52.5405 4.86364 52.5405 5.42045V5.91903H47.0135V4.79403H50.8317C50.8317 4.53267 50.7749 4.30114 50.6612 4.09943C50.5476 3.89773 50.3899 3.74006 50.1882 3.62642C49.9894 3.50994 49.7578 3.4517 49.4936 3.4517C49.218 3.4517 48.9737 3.51562 48.7607 3.64346C48.5504 3.76846 48.3857 3.9375 48.2663 4.15057C48.147 4.36079 48.0859 4.59517 48.0831 4.85369V5.92329C48.0831 6.24716 48.1428 6.52699 48.2621 6.76278C48.3842 6.99858 48.5561 7.1804 48.7777 7.30824C48.9993 7.43608 49.2621 7.5 49.5661 7.5C49.7678 7.5 49.9524 7.47159 50.12 7.41477C50.2876 7.35795 50.4311 7.27273 50.5504 7.15909C50.6698 7.04545 50.7607 6.90625 50.8232 6.74148L52.5021 6.85227C52.4169 7.25568 52.2422 7.60795 51.978 7.90909C51.7166 8.20739 51.3786 8.44034 50.9638 8.60795C50.5519 8.77273 50.076 8.85511 49.5362 8.85511ZM59.6303 8.72727H56.5366V-9.53674e-07H59.6559C60.5337 -9.53674e-07 61.2894 0.174715 61.9229 0.524147C62.5565 0.870738 63.0437 1.36932 63.3846 2.01989C63.7283 2.67045 63.9002 3.44886 63.9002 4.35511C63.9002 5.2642 63.7283 6.04545 63.3846 6.69886C63.0437 7.35227 62.5536 7.85369 61.9144 8.20312C61.2781 8.55256 60.5167 8.72727 59.6303 8.72727ZM58.3818 7.14631H59.5536C60.0991 7.14631 60.5579 7.04972 60.93 6.85653C61.305 6.66051 61.5863 6.35795 61.7738 5.94886C61.9641 5.53693 62.0593 5.00568 62.0593 4.35511C62.0593 3.71023 61.9641 3.18324 61.7738 2.77415C61.5863 2.36506 61.3065 2.06392 60.9343 1.87074C60.5622 1.67756 60.1033 1.58097 59.5579 1.58097H58.3818V7.14631ZM68.1903 8.85511C67.5284 8.85511 66.956 8.71449 66.473 8.43324C65.9929 8.14915 65.6222 7.75426 65.3608 7.24858C65.0994 6.74006 64.9688 6.15057 64.9688 5.48011C64.9688 4.80398 65.0994 4.21307 65.3608 3.70739C65.6222 3.19886 65.9929 2.80398 66.473 2.52273C66.956 2.23864 67.5284 2.09659 68.1903 2.09659C68.8523 2.09659 69.4233 2.23864 69.9034 2.52273C70.3864 2.80398 70.7585 3.19886 71.0199 3.70739C71.2813 4.21307 71.4119 4.80398 71.4119 5.48011C71.4119 6.15057 71.2813 6.74006 71.0199 7.24858C70.7585 7.75426 70.3864 8.14915 69.9034 8.43324C69.4233 8.71449 68.8523 8.85511 68.1903 8.85511ZM68.1989 7.44886C68.5 7.44886 68.7514 7.36364 68.9531 7.19318C69.1548 7.01989 69.3068 6.78409 69.4091 6.48579C69.5142 6.1875 69.5668 5.84801 69.5668 5.46733C69.5668 5.08665 69.5142 4.74716 69.4091 4.44886C69.3068 4.15057 69.1548 3.91477 68.9531 3.74148C68.7514 3.56818 68.5 3.48153 68.1989 3.48153C67.8949 3.48153 67.6392 3.56818 67.4318 3.74148C67.2273 3.91477 67.0725 4.15057 66.9673 4.44886C66.8651 4.74716 66.8139 5.08665 66.8139 5.46733C66.8139 5.84801 66.8651 6.1875 66.9673 6.48579C67.0725 6.78409 67.2273 7.01989 67.4318 7.19318C67.6392 7.36364 67.8949 7.44886 68.1989 7.44886Z" fill="white"/>
</svg>
